<svg width="14" height="14" viewBox="0 0 14 14" fill="none" xmlns="http://www.w3.org/2000/svg">
<circle cx="7" cy="7" r="7" fill="#EA5D4A"/>
<path fill-rule="evenodd" clip-rule="evenodd" d="M5.69293 5.2447C5.73031 5.0715 5.49459 4.56479 5.42831 4.39454C5.35605 4.20901 5.02465 3.31569 4.95239 3.18941C4.86767 3.04115 4.80886 3.01648 4.59906 3.00415C4.26641 2.98512 3.94199 3.02774 3.73243 3.21166C3.34646 3.55082 3.06439 4.17979 3.01207 4.74254C2.94479 5.46884 3.16954 6.04338 3.42096 6.57477C3.58841 6.9284 4.06308 7.62252 4.3008 7.93727C4.47023 8.16302 4.6023 8.32442 4.79416 8.54963C4.9778 8.76625 5.10339 8.88905 5.32565 9.12203L5.62242 9.3963C5.87757 9.63196 6.27849 9.90516 6.56754 10.0955C6.93881 10.3419 7.60311 10.6191 8.06483 10.7722C8.67705 10.9765 9.21103 11.1232 9.84991 10.8521C10.5693 10.5473 10.963 10.0765 10.9974 9.20675C11.0068 8.97162 10.9989 8.90138 10.8347 8.80942C10.5979 8.67697 10.36 8.55901 10.1213 8.43327C9.87657 8.30324 9.64708 8.18473 9.40165 8.06409C8.87016 7.80376 8.84499 8.04291 8.47048 8.58475C8.10644 9.11077 8.04016 9.12927 7.44214 8.83677C6.92485 8.5826 6.51371 8.25256 6.16263 7.92548C6.0657 7.83673 5.97699 7.71957 5.89053 7.62574C5.71262 7.43109 5.56137 7.22626 5.40638 7.00239C4.9778 6.38227 4.91675 6.26672 5.23869 5.91255C5.34708 5.79431 5.64634 5.45811 5.69293 5.2447Z" fill="white"/>
</svg>
